<?xml version="1.0" encoding="UTF-8"?>
<!DOCTYPE svg PUBLIC "-//W3C//DTD SVG 1.1//EN" "http://www.w3.org/Graphics/SVG/1.1/DTD/svg11.dtd">
<!-- Creator: CorelDRAW 2019 (64 Bit) -->
<svg xmlns="http://www.w3.org/2000/svg" xml:space="preserve" width="60mm" height="60mm" version="1.1" style="shape-rendering:geometricPrecision; text-rendering:geometricPrecision; image-rendering:optimizeQuality; fill-rule:evenodd; clip-rule:evenodd"
viewBox="0 0 6000 6000"
 xmlns:xlink="http://www.w3.org/1999/xlink">
 <defs>
  <style type="text/css">
   <![CDATA[
    .str0 {stroke:#0077BE;stroke-width:20;stroke-miterlimit:22.9256}
    .str1 {stroke:#0077BE;stroke-width:7.62;stroke-miterlimit:22.9256}
    .fil1 {fill:#FEFEFE}
    .fil8 {fill:#0077BE}
    .fil9 {fill:#0077BF}
    .fil0 {fill:#28166F}
    .fil5 {fill:#658239}
    .fil2 {fill:#E36519}
    .fil3 {fill:#E3651A}
    .fil10 {fill:#F1EF00}
    .fil7 {fill:#FDF500}
    .fil6 {fill:#FEFEFF}
    .fil4 {fill:#FEFEFE;fill-rule:nonzero}
   ]]>
  </style>
   <clipPath id="id0">
    <rect x="-5396.51" y="13784.64" width="11149.14" height="4019.43"/>
   </clipPath>
 </defs>
 <g id="Camada_x0020_1">
  <metadata id="CorelCorpID_0Corel-Layer"/>
  <g id="_2270144721600">
   <path class="fil0" d="M1025.41 693.61l3937.79 0c188.77,0 343.19,154.42 343.19,343.15l0 3937.81c0,188.75 -154.42,343.17 -343.19,343.17l-3937.79 0c-188.73,0 -343.15,-154.42 -343.15,-343.17l0 -3937.81c0,-188.73 154.42,-343.15 343.15,-343.15z"/>
   <path class="fil1" d="M790.38 1704.24l-2.49 1761.74c153.97,-5.27 1553.81,-13.5 1593.73,10.41l185.95 330.17 885.2 -0.2 432.15 -782.52 249.85 -1.22 -333.15 946.34c-34.65,94.5 -73.71,228.45 -114.48,310.62l-1451.66 -2.12c-37.35,-9.89 -197.94,-232.74 -218.07,-275.51l-1231.93 324.77c25.4,132.29 90.44,211.5 170.04,273.73 103.42,80.87 198.31,81.32 351.42,81.17l3456.53 0.15c255.56,0.36 447.21,-149.7 469.88,-390.09l1.27 -1713.74 -1597.02 -0.27 -189.51 -337.28 -883.74 -0.71 -436.62 788.09 -248.68 -1.01 449.3 -1259.79 1464.05 1.58c25.35,9.79 160.77,225.75 220.4,280.62l1216.91 -331.9 -3.02 -44.61c-60.52,-166.88 -143.97,-288.59 -322.5,-327.88 -114.87,-25.3 -1725.24,-9.81 -1921.01,-9.81 -203.61,0 -1786.05,-20.91 -1910.76,20 -150.14,49.24 -299.11,220.82 -282.04,349.27z"/>
   <path class="fil2" d="M5222.01 2569.96c8.97,-248.53 19.58,-667.13 -7.93,-905.28l3.01 44.61 -1216.88 331.9c-59.68,-54.87 -195.05,-270.83 -220.4,-280.62l-1464.08 -1.58 -449.27 1259.79 248.65 1.01 436.63 -788.09 883.74 0.71 189.53 337.28 1597 0.27z"/>
   <path class="fil3" d="M2369.02 3468.41l-1605.08 2.63c2.81,134.55 -14.84,777.6 8.92,847.7l1231.92 -324.77c20.17,42.77 180.76,265.62 218.07,275.51l1451.66 2.12c40.79,-82.17 79.85,-216.13 114.52,-310.62l333.11 -946.34 -249.84 1.22 -432.14 782.52 -885.18 0.2 -185.96 -330.17z"/>
   <path class="fil4" d="M1312.12 1209.67m0 -360.32l132.86 0c29.69,0 52.84,2.01 68.43,7.04 21.14,6.05 39.27,17.12 53.85,33.23 15.11,15.59 26.67,35.22 34.74,58.37 7.54,22.65 11.56,51.34 11.56,85.05 0,29.69 -3.52,54.85 -11.06,76.48 -9.07,26.17 -21.64,47.31 -38.26,63.92 -12.57,12.07 -29.69,21.63 -51.33,28.69 -16.09,5.03 -37.23,7.54 -63.91,7.54l-136.88 0 0 -360.32zm72.98 60.89l0 238.54 54.35 0c20.13,0 34.72,-1 43.77,-3.52 11.58,-3.02 21.14,-8.06 29.19,-15.1 7.56,-7.05 14.1,-18.61 18.62,-34.72 5.03,-16.11 7.55,-38.24 7.55,-65.92 0,-27.68 -2.52,-49.32 -7.55,-63.93 -4.52,-15.08 -11.56,-26.67 -20.13,-35.22 -9.05,-8.04 -20.12,-13.58 -33.72,-16.61 -10.05,-2.52 -30.19,-3.52 -59.38,-3.52l-32.7 0zm290.36 299.43m0 0l0 -360.32 266.72 0 0 60.89 -193.74 0 0 80.02 180.15 0 0 60.88 -180.15 0 0 97.64 200.78 0 0 60.89 -273.76 0zm335.66 0m0 0l0 -360.32 247.59 0 0 60.89 -174.62 0 0 85.55 150.97 0 0 60.9 -150.97 0 0 152.98 -72.97 0zm307.48 0m0 0l0 -360.32 266.72 0 0 60.89 -193.75 0 0 80.02 180.15 0 0 60.88 -180.15 0 0 97.64 200.79 0 0 60.89 -273.76 0zm316.55 0m0 -116.75l70.94 -7.04c4.53,23.64 13.1,41.26 25.67,52.32 13.09,11.08 30.7,16.62 52.84,16.62 23.15,0 40.76,-5.03 52.84,-15.09 11.57,-9.57 17.61,-21.14 17.61,-34.74 0,-8.55 -2.52,-15.59 -7.55,-21.62 -5.03,-6.06 -13.58,-11.09 -26.17,-15.61 -8.04,-3.02 -27.68,-8.05 -57.87,-15.61 -38.74,-9.56 -65.92,-21.63 -81.53,-35.73 -22.12,-20.13 -33.21,-44.27 -33.21,-72.95 0,-18.13 5.03,-35.75 15.61,-51.34 10.56,-16.11 25.17,-28.18 44.78,-36.75 19.63,-8.55 43.29,-12.57 70.96,-12.57 44.78,0 79.02,10.06 101.65,30.19 22.65,19.64 34.73,46.31 35.74,80.02l-72.98 2.52c-3.01,-18.63 -9.55,-32.21 -19.63,-40.26 -10.56,-8.06 -25.66,-12.08 -45.78,-12.08 -21.14,0 -37.76,4.52 -49.32,13.09 -7.55,5.53 -11.57,13.08 -11.57,22.63 0,8.57 3.52,15.61 11.06,21.65 9.06,8.04 31.2,16.11 66.43,24.15 35.23,8.55 61.4,17.12 78.5,26.17 16.62,9.06 30.2,21.14 39.77,36.73 9.56,15.11 14.08,34.22 14.08,57.37 0,20.64 -5.53,39.77 -17.11,57.87 -11.57,18.13 -27.68,31.2 -48.81,40.27 -20.63,8.55 -46.8,13.08 -78.5,13.08 -45.3,0 -80.52,-10.56 -104.68,-31.7 -24.66,-20.64 -38.75,-51.34 -43.77,-91.59zm318.04 116.75m361.32 0l-78.51 0 -31.2 -82.03 -144.42 0 -30.2 82.03 -76.99 0 139.9 -360.32 76.99 0 144.43 360.32zm-133.36 -142.92l-49.82 -133.36 -48.81 133.36 98.63 0z"/>
   <path class="fil4" d="M3461.45 1209.67m243.56 -132.86l70.46 21.64c-10.56,39.75 -28.69,68.94 -53.85,88.57 -25.16,19.13 -57.37,28.69 -95.61,28.69 -48.31,0 -87.56,-16.6 -118.27,-49.33 -30.7,-32.7 -46.29,-76.98 -46.29,-133.84 0,-59.89 15.59,-106.69 46.29,-139.9 31.21,-33.21 71.97,-49.83 122.3,-49.83 44.27,0 80.01,13.08 107.69,39.25 16.1,15.1 28.69,37.25 36.73,66.44l-71.97 17.09c-4.02,-18.6 -13.07,-33.21 -26.67,-44.27 -13.58,-10.58 -30.19,-16.11 -49.3,-16.11 -26.68,0 -48.32,9.57 -64.93,28.68 -16.6,19.13 -25.15,50.33 -25.15,93.11 0,45.28 8.05,77.99 24.64,97.12 16.62,19.63 37.76,29.19 63.93,29.19 19.61,0 36.23,-6.04 49.8,-18.63 14.1,-12.07 24.16,-31.7 30.2,-57.87zm130.34 132.86m0 0l0 -360.32 72.98 0 0 360.32 -72.98 0zm105.69 0m128.83 0l-128.83 -360.32 79.01 0 91.58 266.72 87.56 -266.72 77.51 0 -128.34 360.32 -78.49 0zm241.04 0m0 0l0 -360.32 72.98 0 0 360.32 -72.98 0zm144.43 0m0 0l0 -357.3 72.97 0 0 296.41 180.66 0 0 60.89 -253.63 0z"/>
   <path class="fil4" d="M1705.67 5170.69m361.32 0l-78.5 0 -31.2 -82.02 -144.43 0 -30.19 82.02 -77 0 139.9 -360.32 77 0 144.42 360.32zm-133.36 -142.91l-49.82 -133.37 -48.8 133.37 98.62 0zm171.1 142.91m0 0l0 -360.32 109.21 0 64.91 245.59 63.42 -245.59 109.71 0 0 360.32 -67.45 0 0 -283.82 -71.45 283.82 -69.96 0 -70.44 -283.82 -0.5 283.82 -67.45 0zm383.47 0m361.33 0l-78.51 0 -31.2 -82.02 -144.42 0 -30.2 82.02 -77 0 139.9 -360.32 77 0 144.43 360.32zm-133.36 -142.91l-49.83 -133.37 -48.8 133.37 98.63 0zm140.4 142.91m0 0l0 -65.41 189.73 -234.02 -168.09 0 0 -60.89 263.69 0 0 56.37 -197.26 243.07 204.82 0 0 60.88 -292.89 0zm324.09 0m0 -178.14c0,-36.74 5.54,-67.44 16.6,-92.6 8.06,-18.11 19.13,-34.72 33.73,-49.31 14.08,-14.6 29.69,-25.66 46.29,-32.72 22.65,-9.56 48.31,-14.08 78,-14.08 52.84,0 95.61,16.61 127.31,49.32 31.72,33.21 47.82,79.01 47.82,137.89 0,58.37 -15.6,103.65 -47.3,136.86 -31.72,32.73 -73.98,49.32 -126.82,49.32 -53.85,0 -96.62,-16.59 -128.33,-49.32 -31.2,-32.71 -47.3,-77.48 -47.3,-135.36zm74.97 -2.51c0,41.26 9.58,71.95 28.19,93.09 19.12,21.14 43.28,31.7 71.97,31.7 29.18,0 52.84,-10.56 71.97,-31.19 18.6,-21.14 27.67,-52.34 27.67,-94.61 0,-41.27 -9.07,-71.97 -27.17,-92.1 -18.12,-20.62 -42.28,-30.7 -72.47,-30.7 -29.69,0 -54.36,10.08 -72.48,30.7 -18.61,20.64 -27.68,51.84 -27.68,93.11zm331.64 180.65m0 0l0 -360.32 70.46 0 148.45 241.56 0 -241.56 67.43 0 0 360.32 -72.96 0 -145.94 -237.01 0 237.01 -67.44 0zm326.61 0m361.32 0l-78.51 0 -31.19 -82.02 -144.43 0 -30.19 82.02 -77 0 139.9 -360.32 77 0 144.42 360.32zm-133.36 -142.91l-49.82 -133.37 -48.8 133.37 98.62 0zm152.99 142.91m0 -116.74l70.95 -7.05c4.53,23.64 13.1,41.26 25.67,52.33 13.09,11.08 30.69,16.61 52.84,16.61 23.15,0 40.75,-5.03 52.84,-15.09 11.57,-9.57 17.6,-21.14 17.6,-34.73 0,-8.55 -2.51,-15.59 -7.54,-21.63 -5.03,-6.05 -13.58,-11.08 -26.17,-15.61 -8.05,-3.02 -27.68,-8.04 -57.87,-15.61 -38.74,-9.55 -65.92,-21.62 -81.53,-35.72 -22.12,-20.13 -33.21,-44.28 -33.21,-72.96 0,-18.12 5.03,-35.74 15.61,-51.33 10.56,-16.11 25.17,-28.18 44.78,-36.75 19.63,-8.55 43.29,-12.57 70.96,-12.57 44.78,0 79.02,10.05 101.65,30.19 22.65,19.63 34.73,46.3 35.74,80.02l-72.98 2.51c-3.01,-18.62 -9.55,-32.2 -19.63,-40.25 -10.56,-8.06 -25.66,-12.09 -45.78,-12.09 -21.14,0 -37.76,4.53 -49.32,13.09 -7.55,5.54 -11.57,13.08 -11.57,22.64 0,8.56 3.52,15.6 11.06,21.64 9.06,8.05 31.2,16.11 66.42,24.16 35.24,8.55 61.41,17.11 78.51,26.17 16.62,9.05 30.2,21.14 39.77,36.73 9.55,15.1 14.08,34.21 14.08,57.37 0,20.63 -5.53,39.76 -17.12,57.87 -11.56,18.12 -27.67,31.2 -48.8,40.27 -20.63,8.55 -46.8,13.07 -78.51,13.07 -45.29,0 -80.52,-10.56 -104.67,-31.7 -24.66,-20.64 -38.75,-51.33 -43.78,-91.58z"/>
   <path class="fil5" d="M2602.97 2667.83c10.01,76.62 9.78,-7.37 42.99,50.8l-14.25 7.26c-9.79,4.29 -1.98,1.27 -14.39,6.23 -9.82,3.94 -18.94,5.84 -27.37,9.61 1.12,159.67 69.77,-61.07 7.42,332.49 -16.84,10.38 -10.56,2.43 -40.78,7.38 -78.04,12.81 -147.9,46.94 -165.96,129.77 -1.3,5.9 -2.63,19.03 -2.8,19.62 -9.89,40.2 -20.88,17.82 -35.82,56.58 43.87,38.74 108.95,51.15 174.92,68.26 66,17.1 105.52,50.33 163,80.77 148.47,78.63 77.55,37.22 169.81,26.53 9.94,-1.14 29.81,-5.1 42.11,-11.44l32.07 -18.99c2.15,-1.16 4.98,-2.23 7.13,-3.41 38.41,-21.03 -4.21,30.16 54.25,-68.23 109.84,0.02 50.12,51.12 130.27,54.42l170.77 -3.25c59.24,-16.73 32.79,-116.18 29.19,-140.3 -2.92,-19.57 128.14,-322.52 139.46,-339.94 -1.17,-0.64 -3.54,-1.74 -3.92,-0.48l-14.4 -2.17c-113.33,-29.49 -144.51,-138.87 -160.56,-169.76l-68.2 0.04 -25.61 77.03c-43.94,-10.36 0.74,-17.53 -61.75,-17.94l-14.21 59.33c-77.4,-57.08 -21.21,-40.82 -49.66,-193.76 -9.17,-49.37 -27.69,-78.93 -74.23,-56.55 -45.23,21.73 -107.03,121.54 -179.22,77.4 -36.83,-22.51 -33.99,-42.21 -49.01,-87.02 -33.35,6.35 -1.66,-0.81 -32.93,12.87 -92.34,40.39 -101.14,-1.82 -128.32,36.85z"/>
  </g>
  <g style="clip-path:url(#id0)">
   <image id="governo.png" x="-5396.51" y="13784.64" width="11149.13" height="4019.43" xlink:href="marcas_Images\marcas_ImgID1.png"/>
  </g>
  <path class="fil6 str0" d="M11080.04 15222.92c-26.44,12.33 -48.51,20.21 -77.17,28.68 -59.13,17.47 -130.6,23.39 -196.16,8.88 -106.13,-23.49 -212.46,-124.87 -241.18,-201.93 242.05,79.52 233.21,136.89 587.71,108.9l-73.2 55.47zm-1049.39 153.02c-46.23,63.17 -166.56,151.33 -264.32,201.02 -252.7,128.46 -510.84,46 -719.27,-118.38 -123.43,-97.35 -179.15,45.91 -334.92,-124.77 -111.31,27.49 -176.78,85.59 -331.25,66.35 -289.96,-36.09 -297.4,-375.94 -344.08,-426.71 -43.74,-47.58 -55.21,-15.75 -99.02,-99.65 -32.09,-61.44 -29.87,-98.31 -22.52,-171.07l12.74 18.41c2.01,3.24 8.95,14.76 11.03,18.48 78.61,139.79 161.27,206.6 352.82,242.36 63.96,346.41 243.85,301.47 436.97,267.75 98.46,161.14 257.35,42.37 304.02,25.35 56.68,235.22 249.83,366.38 542.74,309.22 165.05,-32.2 305.82,-137.89 399.32,-261.71 15.04,-19.93 28.84,-42.95 41.41,-64.16l51.76 -65.3c47.55,141.83 224.37,295.35 403.92,303.31 152.67,6.77 109.46,-53.5 186.79,3.52 332.11,244.9 476.33,-91.4 568.04,-182.3 105.05,139.31 101.22,201.92 253.34,302.11 243.4,160.31 460.63,43.03 640.25,-31.75 91.94,-38.27 117.8,-21.86 187.47,-90.02 95.76,-93.68 109.87,-260.24 74.53,-416.87 132.65,46.75 195.18,289.24 84.39,429.79 -44.99,57.08 -115.19,95.73 -208.98,109.44 -182.66,26.7 -89.83,-9.11 -229.9,73.97 -140.99,83.62 -312.76,126.15 -503.48,66.26 -245.49,-77.08 -306,-193.33 -377.03,-239.89 -82.31,46.48 -102.54,148.8 -274.91,123.51 -118.7,-17.41 -187.71,-92.53 -254.5,-139.71 -113.62,38.46 -197.64,93.4 -347.7,54.13 -148.05,-38.76 -161.7,-106.45 -239.66,-182.69zm-1357.22 -676.59c37.58,24.61 32.26,33.56 65.63,60.63 172.4,139.88 487.65,209.51 682.94,111.03 -60.31,297.1 -806.75,148.72 -748.57,-171.66zm2550.97 60.22c288.16,-81.59 495.29,7.22 554.55,262.84 -38.06,-22.59 -73.46,-59.51 -115.65,-89.16 -219.56,-154.35 -383.02,-139.95 -438.9,-173.68zm-2735.35 -147.69c-23.03,-321.5 371.7,-304.61 503.19,-225.38 -126.3,9.29 -207.64,15.27 -309.41,66.72 -113.2,57.23 -117.61,99.98 -193.78,158.66zm2643.43 93.42c-64.54,-118.04 -33.13,-138.52 -137.47,-241.92 -77.29,-76.6 -121.24,-87.08 -230.61,-133.53 226.31,-18.39 459.04,125.78 368.08,375.45zm-2036.52 -435.63c-64.47,-107.37 -32.85,-386.7 402.42,-383.01 -2.63,2.36 -6.35,5.21 -8.28,6.6l-61.3 35.76c-251.55,123.97 -257.43,243.14 -332.84,340.65zm-463.23 -336.88c106.03,-74.34 168.16,-183.4 416.77,-191.08 -2.95,2.16 -7.04,4.63 -9.24,5.92 -2.17,1.27 -6.54,4.2 -9.23,5.72l-99.88 48.36c-133.89,80.2 -154.92,210.68 -153.01,369.1 -12.99,-16.31 3.45,7.31 -17.84,-26.28l-41.19 -65.3c-59.86,-85.9 -136.4,-147.04 -248.27,-178.66l19.92 -6.04c83.88,-13.13 -61.63,-2.39 20.55,-2.4 37.57,-0.01 87.89,30.29 121.42,40.66zm3834.73 1002.78c-18.92,-38.84 -49.4,-79.58 -61.47,-123.01 -31.45,-13.76 -59.25,-50.68 -87.01,-72.1 -27.77,-21.42 -60.28,-39.53 -88.28,-55.96 -152.81,-46.89 -186.33,-30.47 -340.47,-21.69l-44.34 10.67c-7.51,-171.27 -150.72,-175.67 -314.65,-174.65 -137.17,-179.7 -101.8,-159.73 -370.59,-161.51 -67.45,-135.14 7.37,-111.76 -181.36,-316.15 -92.29,-32.06 -123.52,-70.78 -249.41,-84.72 -137.71,-15.25 -180.43,26.65 -241.17,-77.93 -46.44,-22.91 -40.24,-8.73 -64.1,-56.97 -62.85,-21.01 -133.44,-79.22 -218.56,-111.03 -392.94,-146.85 -665.32,101.18 -752.74,128.41 -491.37,-336.78 -711.1,1.06 -833.81,70.36 -57.32,-34.33 -126.48,-77.13 -220.44,-51.09 -81.8,22.66 -116.74,78.33 -163.38,118.24 -148.39,5.55 -237.49,27.83 -326.73,106.86 -289.04,255.97 -76.66,487.47 -114.17,652.37 -33.24,146.11 51.14,232.49 149.82,270.16 0.61,212.47 113.93,345.79 241.12,421.16 215.95,127.97 348.78,64 513.19,-9.9 44.53,42.24 68.34,91.66 147.72,102.93 121.19,17.2 101,-52.92 188.27,23.66 209.99,184.25 461.77,253.75 741.18,142.26 176.11,-70.28 218.88,-188.84 260.57,-226.5 64.87,83.76 112.08,166.01 240.91,204.93 155.01,46.83 230.23,-21.53 340.45,-66.69 75.57,55.1 136.93,155.44 277.84,166.1 152.01,11.51 204.8,-86.38 279.57,-148.1 155.45,236.42 748.13,433 1030.18,144.16 54.56,-55.87 47.65,-33.95 144.64,-42.23 317.11,-27.06 403.66,-325.08 241.44,-527.64 -76.28,-95.24 -71,-29.64 -124.22,-234.4z"/>
  <path class="fil7" d="M10979.29 14021.17c188.73,204.39 113.91,181.01 181.36,316.15 268.79,1.78 233.42,-18.19 370.59,161.51 163.93,-1.02 307.14,3.38 314.65,174.65l44.34 -10.67c382.65,-209.59 467.96,-711.66 78.87,-988.37 -175.88,-125.07 -402.91,-154.15 -626.37,-68.28 -178.58,68.63 -315.62,214.09 -363.44,415.01z"/>
  <path class="fil8" d="M10366.54 16643.72c-60.23,-111.27 -106.17,-524.47 -184.62,-573.26 -47.28,-29.41 -123.22,-18.59 -155.22,18.68 -44.75,52.08 -124.55,688.25 -141.97,797.96 -15.05,94.74 -64.85,255.4 48.1,281.89 204.59,47.98 128.32,-335.68 204.65,-536.87 93.53,182.56 64.27,525.05 228.64,521.93 142.25,-2.69 154.51,-290.16 227.22,-526.77 63.47,120.6 4.86,602.02 215.83,535.98 107.54,-33.67 57.18,-180.01 41.82,-279.44l-102.8 -664.44c-8.82,-59.06 -9.17,-120.28 -50.41,-148.65 -33.49,-23.04 -95.96,-30.8 -138.73,-6.42 -64.62,36.83 -115.93,314.66 -147.67,435.58l-31.38 114.87c-16.75,45.17 -3.93,13.21 -13.46,28.96z"/>
  <path class="fil8" d="M9459.71 16708.92c-53.28,-43.99 -135.83,-180.08 -184.8,-247.18 -114.67,-157.16 -271.85,-476.11 -402.68,-417.1 -92.17,41.57 -60.85,240.94 -60.85,357.52 0,141.17 0,282.35 0,423.52 0,127.59 -33.29,307.21 81.15,335.58 155.01,38.43 125.18,-174.63 125.17,-282.63 -0.01,-137.03 -0.52,-274.16 0.13,-411.17 38.18,27.68 304.31,419.35 352.91,493.67 68.52,104.8 124.91,214.79 209.93,201.77 123.3,-18.89 85.48,-220.74 85.48,-337.22 0,-141.17 0,-282.35 0,-423.52 0,-116.61 36.65,-320.13 -65.88,-359.84 -66.26,-25.66 -115.64,16.83 -131.7,57.59 -17.35,44.06 -8.72,539.31 -8.86,609.01z"/>
  <path class="fil8" d="M8712.14 15333.81c155.77,170.68 211.49,27.42 334.92,124.77 208.43,164.38 466.57,246.84 719.27,118.38 97.76,-49.69 218.09,-137.85 264.32,-201.02 77.96,76.24 91.61,143.93 239.66,182.69 150.06,39.27 234.08,-15.67 347.7,-54.13 66.79,47.18 135.8,122.3 254.5,139.71 172.37,25.29 192.6,-77.03 274.91,-123.51 71.03,46.56 131.54,162.81 377.03,239.89 190.72,59.89 362.49,17.36 503.48,-66.26 140.07,-83.08 47.24,-47.27 229.9,-73.97 93.79,-13.71 163.99,-52.36 208.98,-109.44 110.79,-140.55 48.26,-383.04 -84.39,-429.79 35.34,156.63 21.23,323.19 -74.53,416.87 -69.67,68.16 -95.53,51.75 -187.47,90.02 -179.62,74.78 -396.85,192.06 -640.25,31.75 -152.12,-100.19 -148.29,-162.8 -253.34,-302.11 -91.71,90.9 -235.93,427.2 -568.04,182.3 -77.33,-57.02 -34.12,3.25 -186.79,-3.52 -179.55,-7.96 -356.37,-161.48 -403.92,-303.31l-51.76 65.3c-12.57,21.21 -26.37,44.23 -41.41,64.16 -93.5,123.82 -234.27,229.51 -399.32,261.71 -292.91,57.16 -486.06,-74 -542.74,-309.22 -46.67,17.02 -205.56,135.79 -304.02,-25.35 -193.12,33.72 -373.01,78.66 -436.97,-267.75 -191.55,-35.76 -274.21,-102.57 -352.82,-242.36 -2.08,-3.72 -9.02,-15.24 -11.03,-18.48l-12.74 -18.41c-7.35,72.76 -9.57,109.63 22.52,171.07 43.81,83.9 55.28,52.07 99.02,99.65 46.68,50.77 54.12,390.62 344.08,426.71 154.47,19.24 219.94,-38.86 331.25,-66.35z"/>
  <path class="fil8" d="M11276.26 16283.48c120.37,0.39 323.66,36.87 344.92,-83.47 26.94,-152.47 -165.95,-124.39 -275.23,-124.29 -150.61,0.13 -276.35,-40.95 -279.45,126.9l0.01 822.59c2.83,167.06 127.95,130.57 279.44,130.57 112.86,0.01 307.41,25.45 274.18,-126.69 -25.79,-118.09 -219.84,-81.97 -346.53,-81.25l9.64 -248.66c125.12,0.88 349.48,41.86 339.91,-110.58 -8.51,-135.39 -221.64,-95.32 -347.94,-94.91l1.05 -210.21z"/>
  <path class="fil8 str1" d="M12371.61 16131.92c-35.51,-95.1 -230.12,-61.37 -337.44,-61.37 -110.98,0 -299.35,-31.14 -342.87,56.11 -86.66,173.72 215.6,151.31 215.6,151.31 62.17,301.34 -104.65,885.28 113.23,877.12 194.27,-7.27 54.65,-551.93 102.56,-876.18 62.14,-10.78 142.53,5.69 197.25,-14.14 44.58,-16.15 74.57,-71.55 51.67,-132.85z"/>
  <path class="fil8" d="M8397.12 17077.15c14.73,102.7 150.4,113.23 192.74,36.58 29.42,-53.26 20.48,-936.93 12.85,-987.51 -15.69,-103.89 -148.27,-125.04 -193.39,-40.66 -27.14,50.74 -19.63,939.88 -12.2,991.59z"/>
  <path class="fil7" d="M11872.61 12818.83c-55.38,130.54 -125.82,566.92 -294.69,519.79 -133.67,-37.31 -234.14,-398.64 -294.6,-537.72 14.63,431.61 310.24,1121.07 507.49,446.04 29.19,-99.88 87.52,-321.65 81.8,-428.11z"/>
  <path class="fil7" d="M12946.07 13744.13c-116.96,8.19 -618.54,178.23 -602.94,-39.15 11.18,-155.7 238.37,-368.19 307.76,-465.48 -86.36,34.11 -510.63,394.37 -480.15,564.32 38.9,216.89 665.9,-0.1 775.33,-59.69z"/>
  <path class="fil7" d="M12548.52 13157.83c-470.1,390.09 -732.89,516.87 -481.15,-351.41 -45.2,100.27 -347.66,714.55 -144.76,796.26 170.84,68.8 581.38,-366.5 625.91,-444.85z"/>
  <path class="fil7" d="M10616.8 13183.59c87.13,153.61 918.87,824.5 646.6,32.07 -21.03,-61.2 -121.07,-311.31 -170.6,-364.3 23.25,103.56 223.23,536.82 47.6,578.52 -150.96,35.84 -424.4,-194.84 -523.6,-246.29z"/>
  <path class="fil7" d="M12995.19 14450.81c-132.21,-27.67 -514.68,-186.39 -527.35,-299.94 -14.08,-126.3 272.93,-212.05 380.15,-243.57 44.88,-13.2 117.47,-24.67 157.39,-48.89 -195.99,7.87 -806.93,70.53 -713.44,298.81 46.72,114.08 525.46,293.68 703.25,293.59z"/>
  <path class="fil7" d="M10424.61 13801.55c23.86,48.24 17.66,34.06 64.1,56.97 171.87,45.55 682.38,123.79 478.35,-187.86 -67.49,-103.08 -328.47,-341.48 -445.39,-394.99 24.31,37.3 121.88,109.88 199.81,203.79 54.98,66.26 136.36,138.09 120.28,262.98 -103.26,82.79 -251.45,76.36 -417.15,59.11z"/>
  <path class="fil7" d="M12230.7 14684.5c28,16.43 60.51,34.54 88.28,55.96 27.76,21.42 55.56,58.34 87.01,72.1 -23.97,-67.69 -130.29,-155.87 -82.89,-250.64 81.87,-145.11 476.74,-10.25 624.37,-2.21 -112.43,-59.23 -359.79,-135.75 -512.22,-161.69 -463.01,-78.81 -208.53,277.15 -204.55,286.48z"/>
  <path class="fil8" d="M9422 14871.01c-195.29,98.48 -510.54,28.85 -682.94,-111.03 -33.37,-27.07 -28.05,-36.02 -65.63,-60.63 -58.18,320.38 688.26,468.76 748.57,171.66z"/>
  <path class="fil9" d="M8632.73 13932.79c-33.53,-10.37 -83.85,-40.67 -121.42,-40.66 -82.18,0.01 63.33,-10.73 -20.55,2.4l-19.92 6.04c111.87,31.62 188.41,92.76 248.27,178.66l41.19 65.3c21.29,33.59 4.85,9.97 17.84,26.28 -1.91,-158.42 19.12,-288.9 153.01,-369.1l99.88 -48.36c2.69,-1.52 7.06,-4.45 9.23,-5.72 2.2,-1.29 6.29,-3.76 9.24,-5.92 -248.61,7.68 -310.74,116.74 -416.77,191.08z"/>
  <path class="fil8" d="M11153.24 15167.45c-354.5,27.99 -345.66,-29.38 -587.71,-108.9 28.72,77.06 135.05,178.44 241.18,201.93 65.56,14.51 137.03,8.59 196.16,-8.88 28.66,-8.47 50.73,-16.35 77.17,-28.68l73.2 -55.47z"/>
  <path class="fil8" d="M9095.96 14269.67c75.41,-97.51 81.29,-216.68 332.84,-340.65l61.3 -35.76c1.93,-1.39 5.65,-4.24 8.28,-6.6 -435.27,-3.69 -466.89,275.64 -402.42,383.01z"/>
  <path class="fil8" d="M11224.4 14759.57c55.88,33.73 219.34,19.33 438.9,173.68 42.19,29.65 77.59,66.57 115.65,89.16 -59.26,-255.62 -266.39,-344.43 -554.55,-262.84z"/>
  <path class="fil8" d="M8489.05 14611.88c76.17,-58.68 80.58,-101.43 193.78,-158.66 101.77,-51.45 183.11,-57.43 309.41,-66.72 -131.49,-79.23 -526.22,-96.12 -503.19,225.38z"/>
  <path class="fil8" d="M11132.48 14705.3c90.96,-249.67 -141.77,-393.84 -368.08,-375.45 109.37,46.45 153.32,56.93 230.61,133.53 104.34,103.4 72.93,123.88 137.47,241.92z"/>
  <path class="fil10" d="M12467.46 14935.57c67.97,37.94 104.88,98.28 184.63,140.45l-246.1 -263.46c12.07,43.43 42.55,84.17 61.47,123.01z"/>
 </g>
</svg>
